<?xml version="1.0" encoding="utf-8"?>
<!-- Generator: Adobe Illustrator 24.1.0, SVG Export Plug-In . SVG Version: 6.00 Build 0)  -->
<svg version="1.1" id="Layer_1" xmlns="http://www.w3.org/2000/svg" xmlns:xlink="http://www.w3.org/1999/xlink" x="0px" y="0px"
	 viewBox="0 0 225 52" style="enable-background:new 0 0 225 52;" xml:space="preserve">
<style type="text/css">
	.st0{fill:#FAC12C;}
	.st1{fill:#FFFFFF;}
	.st2{font-family:'HelveticaNeue';}
	.st3{font-size:43.3676px;}
	.st4{fill:#FFFF00;}
</style>
<g>
	<g>
		<polygon class="st0" points="0,39 13.2,52 26.5,39 13.2,26 13.2,39 		"/>
		<polygon class="st0" points="13.2,26 26.5,39 39.7,26 26.5,13 26.5,26 		"/>
		<polygon class="st0" points="26.5,13 39.7,26 53,13 39.7,0 39.7,13 		"/>
	</g>
	<polygon class="st0" points="53,52 53,13 13.2,52 	"/>
</g>
<text transform="matrix(1 0 0 1 67.576 39.0017)" class="st1 st2 st3">Bravo</text>
<polyline class="st4" points="37,23.3 26.5,13 39.7,13 39.7,26 "/>
<polyline class="st4" points="50.2,10.3 39.7,0 53,0 53,13 "/>
<polyline class="st4" points="23.8,36.3 13.2,26 26.5,26 26.5,39 "/>
<polyline class="st4" points="10.5,49.3 0,39 13.2,39 13.2,52 "/>
<polyline class="st0" points="2.6,41.6 13.4,51.7 0.2,52 -0.1,39 "/>
</svg>
